<svg xmlns="http://www.w3.org/2000/svg" viewBox="0 0 868.73 1090.24"><defs><style>.cls-1{fill:red;}.cls-1,.cls-2{fill-rule:evenodd;}.cls-2,.cls-3{fill:#fff;}</style></defs><title>Asset 5</title><g id="Layer_2" data-name="Layer 2"><g id="Layer_1-2" data-name="Layer 1"><path class="cls-1" d="M243.79,459.17l1.53-.09a28,28,0,1,1,0,55.9l-1.53-.08Z"/><path class="cls-1" d="M243.79,215.39V0h0c129.3,0,234.13,107.58,234.13,240.3v75.33c0,11.93-15.24,16.95-22.32,7.35-48.17-65.33-124.4-107.61-210.28-107.61Z"/><path class="cls-2" d="M239.18,247.86C107.08,247.86,0,354.94,0,487S107.08,726.22,239.18,726.22,478.36,619.13,478.36,487,371.27,247.86,239.18,247.86Zm0,299.61A60.44,60.44,0,1,1,299.61,487,60.43,60.43,0,0,1,239.18,547.47Z"/><path class="cls-1" d="M855.28,134.4H773.4c-144.25,0-261.19,113.94-261.19,254.48v92.39h0l0,1.66c0,93.35-46,176.21-117,228.57-10.44,7.69-5,24.25,8,24.25h81.88c144.25,0,261.19-113.94,261.19-254.48h0V388.88h0l0-1.65c0-.7,0-1.38,0-2.07v-32A241.18,241.18,0,0,1,816,202.26a294.15,294.15,0,0,1,47.19-43.54C873.66,151,868.3,134.4,855.28,134.4Z"/><path class="cls-3" d="M154.23,883.47a17,17,0,0,0,1.71,7.81,18,18,0,0,0,4.26,6.32,16.44,16.44,0,0,0,6.3,4.15,19.68,19.68,0,0,0,7.67,1.5,21.09,21.09,0,0,0,7.84-1.5,19.54,19.54,0,0,0,6.31-4.15,24.42,24.42,0,0,0,4.26-6.32,18.62,18.62,0,0,0,1.53-7.64,19.86,19.86,0,0,0-1.53-7.65,26.57,26.57,0,0,0-4.26-6.14,19.74,19.74,0,0,0-6.31-4.16,21.08,21.08,0,0,0-7.84-1.49,19.67,19.67,0,0,0-7.67,1.49,16.57,16.57,0,0,0-6.3,4.16,19,19,0,0,0-4.26,6.14A16.14,16.14,0,0,0,154.23,883.47Zm-32.55-.33a41.9,41.9,0,0,1,3.92-17.78,44.71,44.71,0,0,1,10.91-14.29,52.22,52.22,0,0,1,16.7-9.48,60.32,60.32,0,0,1,21-3.49,65.92,65.92,0,0,1,21,3.33,56.27,56.27,0,0,1,16.7,9.47,45.47,45.47,0,0,1,10.91,14.46A44.58,44.58,0,0,1,226.67,884a43.31,43.31,0,0,1-3.92,18.45,44.82,44.82,0,0,1-11.08,14.46,46.77,46.77,0,0,1-16.7,9.47,68.06,68.06,0,0,1-21.31,3.32,64,64,0,0,1-20.79-3.32,46.65,46.65,0,0,1-16.36-9.47,41.29,41.29,0,0,1-10.91-14.8A45.55,45.55,0,0,1,121.68,883.14Z"/><path class="cls-3" d="M244.39,841.26h30.85v10.47c8.35-7.81,17.89-11.8,28.29-11.8q19.43,0,29.65,16c7-10.81,16.87-16.12,29.66-16.12a37.54,37.54,0,0,1,11.58,1.66,24,24,0,0,1,9.38,5.48,27.5,27.5,0,0,1,6.3,9.81,40.3,40.3,0,0,1,2.22,14.46v55.33H361.47v-42a60.06,60.06,0,0,0-.85-10.64,16.61,16.61,0,0,0-2.73-6.48,9.42,9.42,0,0,0-4.26-3.15,16.38,16.38,0,0,0-5.11-.84c-9.89,0-14.83,7-14.83,21.11v42H302.84v-42a62,62,0,0,0-.85-10.8,19,19,0,0,0-2.38-6.65,9.53,9.53,0,0,0-4.26-3.49,21.46,21.46,0,0,0-6-.83,19.58,19.58,0,0,0-5.45.83,9,9,0,0,0-4.43,3.16,16.12,16.12,0,0,0-3.07,6.65,40.58,40.58,0,0,0-1.19,11.13v42H244.39Z"/><path class="cls-3" d="M442.12,883.64a18.62,18.62,0,0,0,1.54,7.64,18,18,0,0,0,4.26,6.32,16.44,16.44,0,0,0,6.3,4.15,19.92,19.92,0,0,0,7.84,1.5,21.09,21.09,0,0,0,7.84-1.5,19.44,19.44,0,0,0,6.31-4.15,26.63,26.63,0,0,0,4.26-6.15A18.43,18.43,0,0,0,482,884a19.77,19.77,0,0,0-1.53-7.64,26.63,26.63,0,0,0-4.26-6.15A19.63,19.63,0,0,0,469.9,866a21.29,21.29,0,0,0-7.84-1.49,20.1,20.1,0,0,0-7.84,1.49,16.57,16.57,0,0,0-6.3,4.16,20.3,20.3,0,0,0-4.26,6A18.44,18.44,0,0,0,442.12,883.64ZM481,841.26h31v85.25H481V917c-6.64,8.14-15.51,12.13-26.76,12.13a43.41,43.41,0,0,1-17.55-3.49,39.84,39.84,0,0,1-14-9.47,45.89,45.89,0,0,1-9.21-14.46,48.45,48.45,0,0,1-3.41-18.11,46.8,46.8,0,0,1,3.24-17.45,43.71,43.71,0,0,1,22.84-24.1,43.81,43.81,0,0,1,17.72-3.49c10.91,0,19.94,3.66,27.1,11.14Z"/><path class="cls-3" d="M532.94,841.26h30.85v14a35.38,35.38,0,0,1,12.1-11.8,33.87,33.87,0,0,1,16.7-4h2.73a26.19,26.19,0,0,1,3.23.34v28.75a29.84,29.84,0,0,0-13.29-3c-7.16,0-12.44,2-16,6.15S563.79,882,563.79,890v36.56H532.94Z"/><path class="cls-3" d="M137.21,999.29l15.58,33.12,15.59-33.12H184.1l-31.43,62.9-31-62.9Z"/><path class="cls-3" d="M207.36,999.29v58.82H193.42V999.29Zm-16-24.34a8.23,8.23,0,0,1,2.66-6.18,8.65,8.65,0,0,1,6.34-2.59,8.9,8.9,0,0,1,6.46,2.59,8.2,8.2,0,0,1,2.67,6.18,8.46,8.46,0,0,1-2.67,6.3,8.83,8.83,0,0,1-6.33,2.6,8.94,8.94,0,0,1-6.47-2.6A8.49,8.49,0,0,1,191.39,975Z"/><rect class="cls-3" x="224.98" y="956.17" width="13.94" height="101.95"/><rect class="cls-3" x="256.54" y="956.17" width="13.94" height="101.95"/><path class="cls-3" d="M332.58,999.29h13.94v58.82H332.58v-6.17c-5.7,5.31-11.91,7.9-18.5,7.9a26.78,26.78,0,0,1-20.66-8.89c-5.45-5.93-8.11-13.47-8.11-22.37s2.66-16.19,8.11-22a26.18,26.18,0,0,1,20.28-8.89c7,0,13.3,2.84,18.88,8.52Zm-33.08,29.29c0,5.56,1.52,10.13,4.69,13.72a15.32,15.32,0,0,0,12,5.43,16.12,16.12,0,0,0,12.42-5.19,21.75,21.75,0,0,0,0-27.31,16.59,16.59,0,0,0-24.33,0A19.49,19.49,0,0,0,299.5,1028.58Z"/><path class="cls-3" d="M422.37,1056.76a65.3,65.3,0,0,1-.25,7.29,33.36,33.36,0,0,1-.76,5.56,24.86,24.86,0,0,1-5.83,11.49c-5.45,6.05-12.93,9.14-22.43,9.14-8.11,0-14.7-2.1-19.9-6.42s-8.49-10.26-9.25-17.92h13.94a15,15,0,0,0,2.66,6.67c2.92,3.59,7.1,5.44,12.68,5.44,10.13,0,15.2-6,15.2-18.29v-8.15c-5.45,5.43-11.78,8.27-19,8.27a26.27,26.27,0,0,1-20.27-8.77c-5.2-5.81-7.86-13.22-7.86-22,0-8.53,2.41-15.82,7.35-21.88,5.32-6.3,12.29-9.51,20.91-9.51a24.55,24.55,0,0,1,18.88,8.28v-6.68h13.94Zm-13.3-27.93c0-5.69-1.65-10.26-4.69-13.72a15.77,15.77,0,0,0-12.17-5.19c-5.32,0-9.5,1.85-12.54,5.69q-4.19,5.19-4.19,13.34c0,5.32,1.4,9.64,4.19,13.1a16.69,16.69,0,0,0,25.09,0C407.67,1038.59,409.07,1034.14,409.07,1028.83Z"/><path class="cls-3" d="M437.17,1028.33a28.82,28.82,0,0,1,9.37-21.75,33.54,33.54,0,0,1,45.63.13,29.34,29.34,0,0,1,9.25,22.12A29,29,0,0,1,492,1051c-6.21,5.93-13.94,8.89-23.06,8.89a31,31,0,0,1-22.69-9.14C440.21,1044.77,437.17,1037.35,437.17,1028.33Zm14.19.25c0,5.81,1.65,10.5,4.82,14s7.73,5.19,13.05,5.19,9.88-1.73,13-5.19,5-8,5-13.71-1.65-10.26-5-13.72-7.6-5.19-13-5.19a17.05,17.05,0,0,0-12.93,5.19C453,1018.57,451.36,1023,451.36,1028.58Zm38.78-58.2-22.43,19.89-7.6-4.57,17-22Z"/><path class="cls-3" d="M516.12,999.29h13.94v5.44a29.56,29.56,0,0,1,6.84-5.56,17.27,17.27,0,0,1,7.6-1.48c6.85,0,12.3,3,16.23,8.77a21,21,0,0,1,17.74-8.77c13.56,0,20.4,8,20.4,24.09v36.33H584.8v-32.62c0-5.68-.63-9.64-2-12a7.82,7.82,0,0,0-7.1-3.58c-3.93,0-6.72,1.48-8.49,4.33s-2.54,7.29-2.54,13.47v30.39H550.59v-32.49c0-10.39-3-15.7-9.25-15.7-3.93,0-6.72,1.48-8.62,4.33s-2.66,7.41-2.66,13.47v30.39H516.12Z"/><path class="cls-3" d="M671.24,1031.92H628.15c.38,4.82,1.91,8.65,4.82,11.49a16.06,16.06,0,0,0,19.52,1.85q3.42-2.4,7.6-8.89l11.79,6.3a40.15,40.15,0,0,1-5.83,7.78,28.28,28.28,0,0,1-6.47,5.32,26.43,26.43,0,0,1-7.47,3.09,39.12,39.12,0,0,1-8.75,1q-13.5,0-21.67-8.52c-5.45-5.69-8.11-13.1-8.11-22.49s2.66-16.81,7.86-22.62,12.42-8.52,21.16-8.52,16,2.84,21,8.28,7.73,13.1,7.73,22.73Zm-14.19-11.12c-2-7.17-6.72-10.88-14.07-10.88a15.2,15.2,0,0,0-4.81.74,16.17,16.17,0,0,0-4.06,2.23,13.45,13.45,0,0,0-3,3.46,15.92,15.92,0,0,0-2,4.45Z"/><path class="cls-3" d="M706.49,1045.26h35.87v12.85h-63.5l39-46.09H687.23V999.29h58.29Z"/><path class="cls-2" d="M624.31,926.75H736v-13H624.31Z"/></g></g></svg>